<svg xmlns="http://www.w3.org/2000/svg" version="1.1" xmlns:xlink="http://www.w3.org/1999/xlink" xmlns:svgjs="http://svgjs.com/svgjs" width="500" height="1000" preserveAspectRatio="none" viewBox="0 0 500 1000"><g mask="url(&quot;#SvgjsMask1021&quot;)" fill="none"><rect width="500" height="1000" x="0" y="0" fill="rgba(200, 162, 200, 1)"></rect><path d="M0,280.067C53.385,272.023,103.707,260.063,153.045,238.143C210.505,212.615,285.191,199.363,310.853,141.962C336.527,84.533,285.795,22.461,277.335,-39.875C268.783,-102.893,295.12,-172.468,260.906,-226.076C225.621,-281.362,160.42,-316.273,95.407,-324.926C33.658,-333.144,-21.74,-294.257,-79.692,-271.408C-132.111,-250.741,-191.51,-240.496,-227.882,-197.461C-264.094,-154.615,-269.081,-95.344,-275.59,-39.624C-281.947,14.792,-279.514,68.209,-265.092,121.063C-248.445,182.071,-240.094,256.678,-185.862,289.207C-131.569,321.773,-62.604,289.5,0,280.067" fill="#ad75ad"></path><path d="M500 1349.547C583.071 1364.351 665.457 1408.234 745.815 1382.495 833.348 1354.4569999999999 915.123 1290.542 949.8720000000001 1205.45 984.321 1121.092 963.367 1022.182 927.088 938.594 895.414 865.615 815.044 832.27 762.123 772.869 710.207 714.597 694.196 615.642 619.428 593.2660000000001 544.689 570.899 474.323 636.665 401.63 664.9839999999999 335.905 690.588 267.28499999999997 706.1990000000001 213.226 751.509 152.49200000000002 802.413 95.87299999999999 862.467 74.85300000000001 938.873 52.531000000000006 1020.011 48.99000000000001 1114.281 93.832 1185.491 137.676 1255.115 228.41500000000002 1273.068 304.706 1303.883 367.976 1329.438 432.822 1337.575 500 1349.547" fill="#e3d0e3"></path></g><defs><mask id="SvgjsMask1021"><rect width="500" height="1000" fill="#ffffff"></rect></mask></defs></svg>